 <svg  version="1.0" xmlns="http://www.w3.org/2000/svg"  width="225.000000pt" height="225.000000pt" viewBox="0 0 225.000000 225.000000"  preserveAspectRatio="xMidYMid meet">  <g transform="translate(0.000000,225.000000) scale(0.050000,-0.050000)" fill="#f4c547" stroke="none"> <path d="M3556 4445 c-16 -19 -49 -67 -72 -106 -23 -39 -72 -98 -108 -131 -36 -33 -91 -90 -121 -126 -52 -62 -59 -64 -140 -47 -61 13 -113 10 -185 -11 -131 -39 -201 -37 -310 5 -168 66 -471 37 -660 -62 -75 -39 -119 -47 -269 -47 -105 0 -227 -14 -296 -33 l-118 -33 -93 90 c-52 49 -125 118 -164 154 -251 230 -802 424 -891 313 -248 -311 -115 -1357 242 -1895 l51 -78 -24 -237 c-53 -535 241 -972 762 -1131 295 -89 566 -275 950 -650 356 -347 419 -379 732 -380 84 0 200 -9 258 -20 290 -55 539 124 541 389 0 56 13 124 29 151 32 55 40 192 13 208 -10 6 -23 62 -31 124 -7 65 -30 134 -52 163 -77 97 -43 214 45 156 60 -39 107 -9 198 125 100 150 157 201 260 235 53 18 103 42 110 54 20 32 -93 123 -120 96 -25 -25 -98 -28 -124 -3 -10 9 -68 35 -129 57 l-110 40 -27 138 c-28 147 -63 213 -63 120 0 -227 -47 -280 -280 -319 -104 -18 -295 -55 -424 -83 -458 -99 -588 -85 -639 68 -10 29 -52 21 -332 -62 -101 -30 -157 -1 -103 53 128 129 701 170 1058 78 34 -9 44 -7 30 7 -36 37 -228 65 -450 65 -198 0 -221 4 -240 40 -30 56 -100 50 -154 -15 -44 -53 -47 -54 -75 -17 -27 35 -37 36 -125 10 -193 -55 -234 28 -44 89 308 99 859 91 1121 -16 46 -19 66 23 23 46 -59 31 -311 63 -494 63 -152 0 -173 5 -193 41 -26 50 -120 38 -181 -23 -45 -45 -104 -49 -137 -10 -20 25 -40 23 -144 -12 -132 -45 -205 -26 -126 33 181 134 993 172 1276 60 29 -12 36 -7 30 23 -8 40 -126 69 -402 97 -74 8 -135 23 -135 33 0 21 312 178 354 178 14 0 26 10 26 23 0 80 -410 -43 -549 -165 -97 -85 -238 -104 -219 -29 l13 54 -79 -40 c-456 -233 -792 -36 -676 396 44 166 2 160 -203 -27 -330 -300 -386 -791 -156 -1377 22 -58 -36 -41 -126 35 -339 290 -394 705 -187 1410 120 411 122 426 50 408 -52 -13 -52 -13 -45 99 7 107 -18 150 -53 93 -33 -53 -63 -11 -86 120 -41 242 -42 242 149 94 180 -139 181 -139 282 -155 113 -17 110 -13 -130 189 -340 284 -426 311 -474 148 -59 -196 -34 -415 78 -691 55 -134 63 -231 30 -350 -21 -74 -53 -98 -68 -50 -190 643 -219 775 -242 1067 -17 228 18 468 68 468 239 -2 655 -231 921 -507 l68 -71 113 58 c120 60 331 108 581 131 98 9 188 31 260 66 209 101 544 55 710 -96 51 -46 170 -107 170 -87 0 9 -32 37 -70 64 -172 116 18 176 220 69 118 -63 390 -265 390 -289 0 -10 -27 -18 -60 -18 -33 0 -60 -9 -60 -20 0 -11 31 -20 69 -20 215 0 521 -169 502 -278 -7 -40 -18 -100 -24 -134 -8 -51 3 -77 70 -155 142 -164 160 -321 53 -462 -85 -111 -86 -122 -10 -161 67 -35 68 -37 40 -90 -17 -32 -9 -38 65 -50 146 -24 250 -130 127 -130 -27 0 -53 -11 -58 -25 -7 -20 -17 -20 -51 0 -106 63 -81 4 28 -65 50 -31 99 -71 109 -89 14 -25 21 -20 39 28 65 168 42 335 -60 450 -45 51 -58 80 -47 110 60 175 18 370 -113 519 -65 74 -66 78 -43 164 55 206 13 285 -190 359 -199 72 -306 127 -306 158 0 17 7 31 16 31 43 0 112 173 111 275 -1 58 5 105 14 105 16 0 29 -92 50 -344 12 -154 12 -154 81 -177 110 -36 118 -24 111 153 -18 458 -361 948 -527 753z m302 -2815 c56 -56 -98 -381 -173 -366 -35 7 -53 242 -28 373 10 54 145 49 201 -7z m-642 6 c63 -63 11 -329 -72 -374 -55 -29 -76 -3 -100 128 -12 66 -27 144 -35 173 -12 47 -6 54 64 73 105 27 116 27 143 0z m-543 -426 c40 -17 135 -30 214 -31 128 0 153 -7 235 -65 304 -213 304 -214 169 -362 -107 -117 -124 -113 -201 44 -132 268 -222 295 -282 81 -42 -150 -52 -145 -169 79 -123 235 -130 258 -85 270 20 5 39 10 42 12 3 1 38 -11 77 -28z m-267 -147 c27 -42 86 -148 130 -235 144 -284 209 -317 644 -317 171 -1 321 -8 335 -17 68 -44 10 -240 -95 -314 -82 -58 -112 -34 -61 49 63 101 26 135 -51 48 -82 -92 -302 -169 -280 -97 42 136 45 129 -45 70 -171 -114 -433 -31 -535 170 -29 58 -60 186 -87 360 -60 390 -54 431 45 283z m1174 -153 c39 -118 22 -157 -76 -178 -119 -25 -138 0 -82 110 83 163 121 180 158 68z m-548 -126 c17 -89 -9 -111 -110 -94 -100 17 -105 161 -9 256 24 25 105 -85 119 -162z"/> <path d="M2502 3634 c121 -92 208 -474 108 -474 -27 0 -331 253 -360 300 -29 47 -285 -76 -381 -181 -66 -73 -159 -38 -290 109 -75 84 -89 36 -24 -84 99 -184 496 -464 655 -464 33 0 123 13 200 29 168 35 263 17 374 -71 118 -93 135 -84 75 40 -53 109 -43 117 61 52 111 -70 117 -55 33 77 -39 61 -81 149 -93 197 -39 150 -289 497 -357 495 -30 0 -30 -2 -1 -25z m-383 -481 c45 -118 156 -150 213 -63 41 63 88 63 148 0 55 -59 61 -51 -86 -120 -146 -68 -215 -58 -353 51 -110 87 -125 130 -56 158 76 31 115 23 134 -26z m149 15 c38 -15 43 -81 7 -93 -40 -14 -75 6 -75 44 0 54 19 68 68 49z"/> <path d="M3392 3380 c41 -150 118 -274 258 -419 82 -84 150 -163 150 -175 0 -66 -216 -91 -340 -39 -352 145 -614 -115 -315 -312 l116 -77 66 51 c89 68 99 65 83 -29 l-14 -80 94 -40 c179 -77 490 3 350 90 -31 19 -24 90 10 103 18 6 45 -7 66 -34 l37 -44 43 55 c93 117 56 239 -101 337 -81 50 -90 119 -27 194 36 43 52 85 52 137 0 40 10 84 22 96 17 17 1 37 -60 77 -45 30 -82 62 -82 72 0 31 -39 18 -123 -43 -108 -78 -118 -77 -216 35 -66 76 -80 85 -69 45z m484 -164 c54 -54 -2 -222 -83 -248 -57 -18 -109 42 -78 91 20 33 18 39 -20 45 -56 8 -71 72 -21 88 20 6 50 19 66 28 44 26 108 24 136 -4z m-356 -538 l96 -41 93 41 c102 45 144 38 251 -41 86 -63 75 -77 -56 -71 -101 3 -125 -3 -182 -51 -81 -68 -81 -68 -225 5 -64 33 -153 65 -197 72 -90 15 -103 50 -36 97 61 42 140 39 256 -11z"/> <path d="M4194 1771 l96 -109 55 53 c69 66 69 72 -8 121 -51 32 -71 36 -100 17 -28 -17 -47 -17 -77 2 -71 45 -64 27 34 -84z"/> </g> </svg> 