<?xml version="1.0" standalone="no"?>
<!DOCTYPE svg PUBLIC "-//W3C//DTD SVG 20010904//EN"
 "http://www.w3.org/TR/2001/REC-SVG-20010904/DTD/svg10.dtd">
<svg version="1.0" xmlns="http://www.w3.org/2000/svg"
 width="300.000000pt" height="300.000000pt" viewBox="0 0 300.000000 300.000000"
 preserveAspectRatio="xMidYMid meet">
<metadata>
Created by potrace 1.10, written by Peter Selinger 2001-2011
</metadata>
<g transform="translate(0.000000,300.000000) scale(0.100000,-0.100000)"
fill="#000000" stroke="none">
<path d="M1255 2975 c-230 -36 -452 -130 -650 -274 -97 -71 -274 -256 -343
-361 -152 -227 -237 -476 -247 -715 -4 -91 3 -95 17 -10 2 11 6 22 10 25 4 3
8 26 9 50 1 25 5 50 8 55 3 6 7 19 8 30 6 38 52 210 65 248 8 20 18 34 23 30
4 -5 5 -2 1 5 -4 7 12 49 40 100 26 48 53 99 61 115 8 15 19 27 25 27 6 0 9 3
5 6 -9 9 59 101 118 161 29 29 50 55 47 58 -3 2 2 7 10 10 8 3 43 32 76 63 70
65 72 67 132 107 92 60 232 135 255 135 8 0 15 3 15 8 0 13 137 54 250 76 36
7 72 15 80 18 8 4 35 9 60 12 50 6 71 11 115 25 46 15 -91 12 -190 -4z"/>
<path d="M1575 2975 c28 -8 73 -19 100 -24 168 -32 177 -34 255 -55 80 -21
131 -41 123 -49 -3 -4 6 -7 21 -7 15 0 41 -9 57 -21 16 -11 29 -17 29 -13 0 3
15 -4 33 -18 17 -13 46 -30 62 -38 37 -18 127 -81 137 -95 4 -5 8 -7 8 -3 0 4
10 -3 23 -15 12 -12 45 -43 72 -68 58 -53 117 -117 160 -173 17 -22 38 -48 48
-58 10 -10 15 -23 12 -28 -4 -6 -1 -10 5 -10 6 0 8 -4 5 -10 -3 -5 -2 -10 4
-10 5 0 18 -15 28 -34 70 -132 103 -197 103 -207 0 -6 6 -25 14 -42 15 -35 41
-138 52 -202 4 -22 9 -44 12 -50 4 -5 8 -32 10 -60 2 -27 13 -75 23 -105 l20
-55 -5 110 c-13 254 -124 546 -292 767 -257 338 -671 566 -1059 583 l-110 5
50 -15z"/>
<path d="M1375 2474 c-19 -26 -35 -51 -35 -56 0 -5 -6 -6 -12 -2 -7 4 -10 4
-6 -1 6 -6 -40 -84 -62 -105 -33 -31 -71 -95 -76 -129 -4 -23 -11 -44 -15 -47
-5 -3 -9 -174 -9 -380 l0 -374 23 0 24 0 6 203 c4 111 7 295 7 410 l0 208 58
77 c76 100 121 173 132 211 5 17 7 31 5 31 -2 0 -20 -21 -40 -46z"/>
<path d="M1586 2504 c-16 -16 -17 -35 -21 -599 0 -44 -1 -113 -3 -153 l-2 -73
-47 3 -48 3 -5 395 c-5 369 -12 467 -31 400 -4 -14 -7 -208 -8 -432 l-1 -408
90 0 90 0 3 338 c1 185 1 381 1 435 -1 54 2 95 6 90 4 -4 50 -74 103 -155 l97
-147 0 -553 c0 -542 0 -553 20 -566 11 -7 20 -21 20 -31 0 -10 7 -24 15 -31
13 -11 15 51 15 544 l0 557 94 -83 95 -83 0 -302 c1 -261 3 -303 16 -303 8 0
53 22 99 48 47 27 110 62 140 78 l56 29 0 127 0 127 105 -52 105 -52 0 -95 0
-95 -108 -54 c-226 -115 -358 -202 -529 -349 -54 -46 -63 -58 -63 -87 0 -19 4
-36 9 -39 13 -8 -3 -77 -25 -111 -36 -55 -60 -74 -109 -85 -55 -12 -65 -8 -41
19 15 16 15 19 1 24 -15 6 -51 -46 -93 -135 -9 -21 -19 -38 -22 -38 -3 0 -3
58 -1 130 l3 130 -33 0 c-19 0 -64 -3 -101 -7 l-68 -6 0 -86 c0 -47 4 -92 8
-99 11 -17 32 52 32 106 0 44 4 47 72 57 44 7 46 3 49 -110 3 -81 18 -125 45
-125 7 0 31 23 51 50 21 28 47 53 58 55 11 2 38 7 60 10 49 8 136 92 130 125
-2 11 0 20 6 20 5 0 9 30 9 67 l0 67 51 48 c28 26 55 48 60 48 5 0 9 4 9 9 0
5 8 11 18 15 9 3 49 31 87 61 39 30 76 55 83 55 6 0 12 4 12 8 0 5 17 17 38
28 20 10 39 21 42 24 9 9 65 34 73 32 4 -1 7 3 7 8 0 6 8 10 19 10 10 0 25 7
32 16 7 9 37 27 65 41 87 41 95 56 95 163 0 82 -3 96 -22 117 -13 12 -30 23
-38 23 -14 0 -14 1 -1 10 8 5 11 10 5 11 -25 2 -44 8 -90 29 -54 25 -115 42
-112 31 0 -3 -4 -15 -9 -26 -6 -11 -11 -62 -12 -114 0 -107 -9 -123 -89 -166
-26 -14 -67 -36 -91 -49 l-42 -24 -5 21 c-3 12 -6 138 -7 281 l-3 258 -75 70
c-96 90 -128 110 -152 97 -19 -10 -42 -4 -34 9 12 20 -17 107 -52 155 -21 28
-56 81 -78 117 -40 66 -80 109 -101 110 -6 0 -19 -7 -27 -16z"/>
<path d="M1095 2114 c-22 -20 -74 -63 -115 -96 -80 -64 -111 -98 -104 -110 3
-4 0 -8 -7 -8 -7 0 -10 -3 -6 -6 8 -9 -21 -64 -34 -64 -5 0 -21 8 -35 17 -31
20 -49 15 -179 -54 -115 -62 -126 -80 -124 -213 2 -101 10 -135 38 -160 22
-19 178 -100 213 -110 38 -12 58 14 58 76 0 27 3 60 7 73 5 21 9 23 52 17 25
-4 55 -8 66 -10 16 -2 21 -11 23 -45 4 -49 -17 -72 -86 -93 -27 -8 -41 -17
-38 -25 3 -7 0 -13 -6 -13 -15 0 -66 -57 -85 -95 -9 -16 -22 -38 -30 -47 -8
-9 -12 -21 -9 -27 4 -5 2 -12 -4 -16 -5 -3 -10 -17 -10 -31 0 -13 -4 -24 -10
-24 -5 0 -10 -9 -10 -20 0 -11 -4 -20 -9 -20 -9 0 -29 -78 -29 -119 -1 -13 5
-36 13 -50 13 -26 55 -67 55 -54 0 3 8 -1 18 -9 9 -9 34 -21 54 -27 23 -8 50
-28 70 -54 35 -45 78 -86 90 -87 4 0 30 -14 57 -30 48 -30 74 -31 85 -5 3 8
13 11 24 8 14 -3 27 4 43 26 13 17 28 30 33 28 22 -7 49 34 66 100 19 72 40
91 60 53 35 -65 120 -160 120 -132 -1 30 -149 242 -170 242 -35 0 -43 -16 -30
-55 11 -33 9 -46 -11 -111 l-23 -73 -21 19 c-12 11 -24 20 -27 20 -3 0 -9 -24
-12 -52 l-7 -53 -21 28 c-27 37 -35 34 -43 -13 -8 -46 -16 -50 -39 -16 -8 13
-28 27 -44 31 -30 6 -116 89 -126 122 -4 14 -25 25 -67 37 -39 11 -72 28 -91
47 -28 27 -30 34 -26 85 3 33 13 65 25 82 11 15 28 51 38 81 25 75 79 164 112
187 47 31 117 64 136 64 15 0 17 12 17 120 0 121 -9 149 -31 93 -20 -52 -25
-54 -99 -23 -38 15 -71 26 -74 22 -3 -3 -6 -52 -6 -109 0 -56 -2 -103 -5 -103
-3 0 -26 13 -53 29 -26 17 -78 44 -115 62 l-68 31 3 130 3 131 114 58 115 58
48 -29 48 -30 15 36 c8 20 19 53 25 74 8 31 24 50 73 87 72 55 187 162 187
175 0 18 -27 6 -65 -28z"/>
<path d="M2972 1433 c-6 -21 -18 -81 -27 -133 -20 -119 -53 -255 -71 -297 -8
-17 -14 -36 -14 -42 0 -22 -64 -140 -73 -134 -6 3 -7 1 -3 -5 4 -6 -5 -29 -19
-51 -14 -23 -25 -45 -25 -51 0 -5 -5 -10 -12 -10 -6 0 -8 -3 -5 -6 13 -13
-162 -217 -251 -294 -35 -30 -69 -60 -76 -67 -29 -26 -156 -103 -170 -103 -9
0 -16 -4 -16 -9 0 -10 -152 -91 -171 -91 -6 0 -25 -7 -42 -15 -39 -17 -226
-62 -336 -80 -19 -3 -38 -8 -42 -11 -4 -2 -24 -5 -44 -6 -20 -1 -39 -6 -42
-11 -10 -17 193 1 308 27 546 125 981 557 1114 1108 22 92 46 318 33 318 -3 0
-10 -17 -16 -37z"/>
<path d="M14 1359 c36 -584 481 -1125 1066 -1295 101 -30 252 -54 334 -54 63
0 70 8 14 17 -18 3 -37 6 -43 8 -5 1 -21 4 -35 8 -14 3 -65 13 -115 22 -49 9
-108 23 -130 30 -22 7 -70 22 -107 34 -64 20 -233 100 -213 101 6 0 -9 9 -32
20 -62 28 -150 90 -217 154 -33 31 -61 56 -63 56 -1 0 -22 21 -45 47 -24 26
-53 58 -65 70 -12 13 -19 23 -15 23 4 0 2 4 -3 8 -20 14 -64 80 -58 86 4 3 1
6 -6 6 -7 0 -9 5 -6 10 3 6 2 10 -3 10 -5 0 -17 16 -26 35 -9 19 -22 35 -28
35 -6 0 -8 9 -5 20 3 11 2 18 -2 16 -27 -17 -137 314 -157 469 -3 28 -8 54
-11 58 -3 4 -7 27 -10 50 -2 23 -9 47 -15 52 -7 7 -9 -21 -4 -96z"/>
<path d="M1356 1395 c-15 -23 -23 -26 -74 -24 -31 0 -78 -3 -103 -8 -41 -8
-49 -7 -73 14 -30 26 -68 38 -91 29 -10 -4 -15 -19 -15 -49 0 -37 -3 -43 -22
-44 -12 -1 -50 -16 -85 -33 -76 -38 -118 -93 -159 -210 -14 -41 -30 -77 -34
-80 -14 -8 -30 -58 -30 -91 0 -42 38 -76 109 -95 53 -15 63 -22 91 -65 36 -57
84 -99 111 -99 11 0 22 -7 25 -15 9 -24 24 -17 24 10 0 14 6 25 13 25 6 0 19
5 27 10 13 8 12 12 -7 25 -25 18 -31 55 -9 55 23 0 39 -28 34 -60 -6 -43 8
-47 16 -5 5 25 12 35 26 35 10 0 22 -6 27 -12 16 -25 19 85 3 114 -18 32 -4
51 17 23 9 -13 13 -33 10 -55 -5 -32 -4 -33 6 -11 9 18 7 33 -6 69 -12 36 -13
48 -4 54 29 20 66 20 127 3 52 -16 90 -19 192 -16 117 3 128 1 149 -18 13 -12
28 -21 35 -21 7 0 16 -9 19 -21 4 -11 21 -27 38 -34 28 -12 33 -11 45 6 16 23
32 25 32 4 0 -16 -32 -37 -51 -33 -6 2 -13 -2 -16 -8 -2 -7 5 -10 22 -6 54 10
131 136 104 169 -6 7 -8 20 -5 29 4 10 -7 37 -29 69 -48 72 -69 76 -161 30
-68 -35 -73 -36 -100 -22 -16 8 -47 20 -69 27 -22 7 -52 24 -67 37 l-27 25 25
23 c24 22 31 45 17 59 -4 3 -8 14 -10 24 -9 59 -16 82 -24 82 -5 0 -9 15 -9
33 0 32 -23 77 -39 77 -5 0 -16 -11 -25 -25z m-296 -15 c5 0 22 -11 38 -25 26
-22 34 -24 58 -15 36 14 124 17 148 6 14 -7 17 -6 12 2 -12 19 3 14 55 -20 28
-18 49 -39 49 -49 0 -10 5 -21 11 -25 6 -3 8 -17 5 -29 -3 -13 -2 -27 4 -30
12 -7 13 -25 2 -42 -11 -17 -52 -4 -52 16 -1 14 -2 14 -13 1 -15 -20 -116 -44
-131 -31 -6 5 -21 5 -36 -2 -23 -9 -23 -10 -5 -14 11 -3 25 -10 30 -15 7 -8 6
-9 -1 -5 -7 4 -14 1 -17 -7 -4 -10 0 -12 14 -9 13 4 21 -2 29 -21 11 -31 51
-49 87 -40 20 6 24 3 21 -12 -2 -13 -13 -18 -43 -20 -54 -2 -71 9 -79 51 -5
26 -11 34 -19 27 -19 -15 -111 38 -115 66 -2 12 1 22 7 22 6 0 11 7 11 15 0 8
5 15 12 15 6 0 9 -3 5 -6 -3 -4 3 -14 15 -24 21 -17 53 -16 64 1 3 5 -6 5 -20
-1 -17 -6 -26 -6 -26 0 0 6 6 10 13 10 8 0 8 3 -2 9 -10 6 8 9 50 9 43 0 58
-3 44 -8 -18 -8 -18 -9 -2 -9 10 -1 15 -5 12 -11 -3 -6 1 -7 9 -4 9 3 16 15
16 25 0 14 -7 19 -27 19 -21 0 -24 3 -13 10 8 5 11 12 8 16 -4 4 -19 -1 -34
-10 -14 -10 -28 -15 -31 -13 -2 3 -17 1 -33 -3 -35 -10 -55 8 -45 40 8 25 -6
26 -29 1 -22 -25 -31 -83 -16 -110 16 -32 6 -37 -19 -10 -24 25 -27 63 -10
120 10 32 9 42 -5 64 -14 21 -14 25 -2 25 8 0 18 -4 21 -10 3 -5 11 -10 17
-10 14 0 -9 28 -35 42 -27 14 -37 -5 -26 -46 5 -17 9 -40 9 -51 -1 -42 -30 48
-30 92 0 37 3 44 16 39 9 -3 19 -6 24 -6z m350 -36 c0 -14 -5 -24 -11 -22 -6
2 -10 7 -10 11 1 4 1 14 1 22 0 8 5 15 10 15 6 0 10 -12 10 -26z m-394 -66
c17 -26 2 -84 -43 -169 -26 -50 -53 -95 -60 -101 -8 -6 -50 -11 -93 -12 -65
-1 -80 2 -80 14 1 31 37 118 70 170 27 43 45 58 94 81 66 30 101 35 112 17z
m384 -151 c0 -7 -6 -19 -12 -26 -11 -11 -10 -13 0 -7 7 4 25 -3 43 -18 17 -14
37 -26 45 -26 8 0 42 -11 77 -25 l62 -25 60 29 c81 40 106 45 130 27 20 -15
19 -15 -6 -16 -14 0 -35 -9 -47 -21 -12 -11 -30 -19 -40 -18 -24 4 -74 -10
-92 -25 -8 -8 -46 -16 -83 -20 -80 -8 -127 11 -127 51 0 13 -4 23 -9 23 -14 0
-29 54 -24 83 5 27 23 38 23 14z m-365 -6 c-6 -11 33 -81 45 -81 4 0 11 -11
14 -25 4 -15 11 -23 17 -19 6 3 5 -3 -2 -15 -13 -20 -26 -24 -96 -36 -37 -6
-85 27 -76 52 3 7 8 11 11 8 5 -5 27 27 38 58 3 9 10 17 14 17 4 0 12 11 18
25 6 14 14 25 17 25 4 0 4 -4 0 -9z m100 -46 c48 -19 105 -72 105 -97 0 -10
-18 -29 -40 -43 -32 -20 -44 -23 -60 -15 -22 12 -26 25 -10 35 20 12 9 41 -35
97 -48 61 -61 96 -22 61 12 -12 40 -28 62 -38z m206 -1 c9 -8 19 -11 22 -7 4
3 7 1 7 -5 0 -7 -6 -12 -12 -13 -7 0 -23 -2 -35 -5 -24 -4 -32 11 -10 19 7 3
5 6 -5 6 -10 1 -18 -4 -18 -11 0 -12 -29 21 -30 34 0 12 63 -3 81 -18z m469
-74 c0 -10 -12 -32 -26 -49 -20 -24 -22 -31 -10 -31 24 0 26 -67 3 -82 -12 -7
-53 14 -72 37 -13 16 -74 49 -105 56 -23 5 -22 6 13 13 20 5 37 11 37 15 0 10
92 8 108 -2 9 -6 12 1 12 27 0 19 6 36 13 39 18 6 27 -1 27 -23z m-900 -51
c33 -24 39 -33 29 -40 -19 -12 2 -12 94 2 66 10 78 9 101 -7 24 -15 25 -19 13
-32 -11 -11 -19 -11 -35 -3 -11 6 -29 11 -39 11 -11 -1 -5 -8 19 -20 46 -25
56 -40 26 -41 -13 -1 -26 -1 -29 -1 -4 1 -4 -8 -1 -20 l5 -21 -22 22 c-32 32
-68 43 -118 35 -43 -6 -54 1 -31 24 15 15 3 16 -23 2 -30 -17 -102 -14 -137 4
-28 14 -31 21 -26 44 17 74 100 94 174 41z m499 2 c11 -11 27 -21 34 -22 6 0
2 -4 -10 -9 -15 -6 -34 -4 -57 5 -20 8 -45 15 -57 15 -21 0 -21 1 -5 19 22 24
67 20 95 -8z m451 0 c0 -15 -47 -67 -54 -60 -10 10 24 69 40 69 8 0 14 -4 14
-9z m5 -69 c-9 -17 -20 -34 -25 -37 -5 -3 -7 -13 -4 -23 4 -10 3 -13 -3 -6 -4
6 -14 13 -22 15 -9 3 -4 14 17 37 17 18 31 35 31 37 1 3 1 10 1 17 0 8 3 9 10
2 7 -7 5 -21 -5 -42z m-952 -76 c10 -8 14 -17 8 -20 -5 -3 -11 0 -14 6 -2 7
-8 10 -12 5 -14 -12 13 -32 46 -33 28 -2 79 -37 79 -55 0 -4 -18 1 -40 12 -21
10 -44 19 -51 19 -6 0 -29 18 -51 40 l-40 40 28 0 c16 0 37 -7 47 -14z m115 0
c15 -8 38 -26 52 -41 23 -26 24 -27 3 -14 -18 11 -27 11 -43 2 -13 -9 -21 -9
-26 -2 -3 6 -23 18 -42 26 -34 14 -35 16 -17 29 24 18 39 18 73 0z m116 -18
c9 -12 16 -34 16 -48 l0 -25 -31 32 c-20 20 -30 37 -26 47 9 22 23 20 41 -6z
m-136 -90 c7 -7 12 -25 12 -42 l0 -29 -25 23 c-27 25 -34 60 -12 60 7 0 18 -5
25 -12z"/>
<path d="M1270 1319 c16 -28 5 -36 -20 -14 -18 16 -21 16 -44 1 -15 -9 -27
-12 -31 -6 -3 6 -11 10 -17 10 -16 0 12 -29 44 -46 16 -8 38 -12 49 -9 11 4
26 2 34 -5 8 -7 15 -7 19 -1 8 12 -23 91 -35 91 -6 0 -5 -9 1 -21z"/>
<path d="M1358 1294 c6 -11 20 -29 31 -41 18 -19 18 -22 4 -27 -9 -4 -25 -4
-36 0 -16 5 -17 8 -6 16 10 6 7 8 -11 6 -37 -4 -30 -28 12 -45 34 -14 39 -13
55 2 13 13 14 21 5 35 -6 10 -8 28 -5 40 5 17 2 21 -13 19 -10 -2 -25 0 -32 5
-11 7 -12 4 -4 -10z"/>
<path d="M872 1217 c-44 -45 -64 -104 -47 -143 16 -38 50 -58 73 -45 15 9 15
10 -4 11 -62 1 -71 82 -19 159 20 28 34 51 32 51 -2 0 -17 -15 -35 -33z"/>
<path d="M1425 1403 c4 -10 10 -31 13 -48 2 -16 8 -34 12 -40 5 -5 11 -31 15
-58 4 -26 11 -50 16 -53 15 -9 10 -43 -10 -63 -18 -18 -18 -20 -3 -34 17 -15
132 -62 135 -55 1 1 1 85 -1 186 l-3 182 -91 0 c-82 0 -89 -2 -83 -17z m131
-35 c11 -18 14 -257 4 -263 -5 -3 -19 -1 -30 5 -17 9 -20 20 -19 63 1 29 -4
64 -10 80 -6 15 -8 27 -5 27 4 0 2 6 -3 13 -6 6 -13 29 -17 50 l-7 37 40 0
c22 0 43 -5 47 -12z"/>
</g>
</svg>
