 <svg  version="1.0" xmlns="http://www.w3.org/2000/svg"  width="900.000000pt" height="498.000000pt" viewBox="0 0 900.000000 498.000000"  preserveAspectRatio="xMidYMid meet">  <g transform="translate(0.000000,498.000000) scale(0.100000,-0.100000)" fill="#ffffff" stroke="none"> <path d="M4630 3678 c0 -610 -4 -865 -11 -875 -8 -9 -37 -13 -88 -13 -52 0 -83 -5 -97 -15 -25 -19 -78 -19 -94 0 -8 10 -31 15 -71 15 -98 0 -90 -86 -89 883 1 534 -3 853 -9 855 -5 2 -17 -7 -25 -20 -63 -89 -200 -269 -270 -353 -45 -55 -90 -111 -98 -125 -14 -22 -17 -107 -21 -700 -2 -371 -2 -681 0 -687 3 -9 25 -13 64 -13 32 0 59 -4 59 -10 0 -13 -28 -18 -129 -24 l-83 -4 -54 44 c-67 54 -111 75 -203 100 l-73 18 -19 -24 c-33 -42 -40 -71 -38 -160 2 -83 1 -85 -22 -88 -42 -6 -202 -64 -274 -100 -111 -55 -228 -137 -255 -179 -14 -21 -28 -40 -32 -43 -4 -3 -12 -17 -17 -30 -6 -14 -17 -34 -23 -45 -39 -61 -60 -101 -96 -186 -38 -91 -83 -223 -97 -283 -3 -16 -22 -43 -41 -60 -46 -40 -57 -62 -84 -169 -27 -104 -23 -157 14 -220 51 -89 154 -140 416 -207 52 -14 70 -26 70 -49 0 -28 52 -119 70 -124 10 -3 44 -40 76 -83 32 -44 75 -94 97 -113 33 -30 47 -35 100 -39 62 -3 62 -4 119 -65 46 -50 59 -60 70 -49 10 10 10 17 0 32 -6 11 -12 27 -12 35 0 8 -5 15 -11 15 -7 0 -21 10 -33 23 -11 12 -33 31 -48 43 -15 11 -37 40 -49 63 l-22 42 24 25 c18 19 32 24 59 22 29 -2 36 -7 38 -28 2 -14 8 -29 13 -35 5 -5 9 -27 9 -50 0 -23 4 -45 9 -50 5 -6 11 -19 14 -30 4 -16 5 -14 6 7 1 22 8 29 48 42 70 24 95 21 115 -14 17 -30 41 -39 53 -19 9 14 -14 69 -30 69 -20 0 -124 109 -131 138 -7 30 -32 62 -47 62 -6 0 -24 15 -42 33 -35 36 -105 73 -172 92 -31 9 -29 40 3 62 14 10 33 26 42 35 21 23 94 24 112 3 7 -8 16 -15 21 -15 4 0 36 -16 70 -36 75 -44 133 -101 154 -150 19 -45 19 -44 -4 -44 -22 0 -33 -21 -20 -41 5 -8 9 -33 9 -56 0 -45 8 -73 20 -73 10 0 50 76 50 95 0 21 34 36 67 29 18 -3 35 -17 46 -36 22 -38 51 -35 54 7 9 112 18 150 37 150 27 0 33 25 10 42 -12 9 -15 16 -8 23 8 8 0 22 -23 48 -19 20 -47 59 -62 87 -16 29 -41 56 -57 64 -16 7 -37 17 -46 22 -45 23 -48 7 -7 -30 24 -21 51 -50 58 -65 13 -24 13 -28 -4 -40 -18 -13 -17 -16 17 -67 28 -41 39 -71 47 -124 6 -38 8 -71 5 -75 -3 -3 -18 9 -33 25 -15 17 -48 47 -73 68 -53 42 -76 93 -58 127 6 11 15 20 20 20 6 0 10 5 10 10 0 15 -36 12 -50 -5 -6 -8 -9 -23 -5 -35 9 -30 -15 -25 -55 10 -18 17 -40 30 -47 30 -7 0 -13 4 -13 8 0 12 -66 38 -130 52 -52 11 -119 10 -219 -6 -50 -7 -61 2 -61 55 0 31 -2 33 -27 28 -16 -3 -57 -10 -93 -17 -120 -22 -258 8 -354 75 -27 19 -28 23 -22 75 11 110 90 210 181 230 114 25 127 30 115 46 -17 19 -124 18 -199 -2 -108 -30 -113 -12 -50 197 36 117 145 313 239 427 28 35 65 58 193 122 192 97 222 107 270 91 28 -10 40 -22 61 -66 22 -47 25 -63 20 -122 -5 -55 -17 -90 -62 -183 -99 -205 -177 -327 -261 -407 -41 -40 -82 -73 -91 -74 -8 -1 -32 0 -52 1 -46 2 -50 -16 -6 -26 18 -3 37 -12 43 -19 5 -6 50 -40 98 -74 48 -35 95 -75 104 -89 9 -15 19 -29 20 -32 8 -9 153 2 257 21 60 10 121 19 135 19 52 0 101 -22 150 -66 41 -36 50 -50 45 -68 -4 -17 3 -31 25 -52 17 -16 31 -38 31 -49 0 -11 7 -29 15 -39 8 -11 15 -31 15 -46 0 -20 9 -30 42 -45 34 -16 63 -48 144 -155 56 -74 108 -135 115 -135 12 0 14 40 14 220 0 121 -2 252 -5 290 l-5 70 -80 12 c-86 14 -159 6 -202 -23 -24 -15 -31 -48 -13 -59 6 -3 10 -15 10 -26 0 -29 -24 -18 -28 12 -2 13 -10 28 -18 32 -28 16 -15 46 29 66 89 40 123 46 205 32 99 -16 252 -56 322 -83 76 -29 139 -32 282 -14 68 9 194 16 281 17 l158 2 47 -40 c26 -23 71 -53 100 -68 35 -18 57 -38 67 -59 28 -61 83 -106 131 -106 19 0 34 -3 34 -7 0 -3 -12 -21 -26 -40 -32 -42 -26 -68 14 -60 15 4 47 10 72 15 62 11 104 38 140 89 17 24 37 43 45 43 7 0 15 7 19 15 8 21 -18 19 -40 -2 -9 -10 -26 -17 -38 -18 -14 0 -22 -7 -24 -22 -2 -13 -7 -23 -11 -23 -4 0 -18 -9 -31 -20 -13 -11 -33 -20 -46 -20 -13 0 -27 -8 -33 -17 -5 -10 -13 -15 -16 -11 -8 8 44 86 89 135 24 26 32 30 44 21 11 -10 17 -9 27 5 13 18 49 24 75 13 27 -11 92 86 98 145 l5 49 -32 -6 c-25 -5 -37 -2 -56 16 -30 29 -31 37 -2 72 38 46 76 21 77 -49 0 -25 10 -29 28 -11 18 18 15 41 -13 78 -21 29 -24 40 -19 89 4 46 1 64 -18 101 -13 26 -35 51 -51 58 -30 15 -42 36 -52 93 -6 40 -48 84 -90 95 -14 3 -28 10 -31 15 -7 12 -131 11 -139 -1 -3 -5 -13 -10 -21 -10 -8 0 -36 -9 -62 -20 -46 -20 -64 -30 -147 -77 -22 -12 -50 -27 -62 -32 -11 -5 -24 -15 -28 -20 -12 -20 -80 -11 -138 19 -32 16 -74 32 -93 36 -19 3 -37 10 -40 15 -3 5 -13 9 -22 9 -9 0 -29 6 -44 14 -15 8 -42 17 -60 21 -18 4 -46 18 -63 30 -48 37 -125 113 -125 124 0 5 12 19 28 30 15 11 30 24 34 28 4 5 16 18 27 31 29 31 30 120 2 144 -17 14 -19 25 -14 70 4 39 1 58 -9 69 -37 38 -47 63 -42 103 5 32 2 46 -14 64 -15 17 -20 38 -21 87 0 36 3 65 8 65 12 0 21 -37 21 -91 0 -29 6 -51 15 -59 9 -7 14 -24 13 -38 -2 -20 5 -29 36 -46 l40 -21 2 -110 c2 -60 3 -132 4 -160 0 -27 -1 -96 -3 -152 -5 -121 -6 -119 98 -152 39 -12 88 -28 110 -37 39 -15 59 -24 137 -59 20 -9 45 -15 55 -13 17 3 18 52 19 1168 1 918 -2 1170 -12 1190 -7 14 -27 39 -44 55 -38 35 -243 289 -314 388 -26 37 -54 67 -61 67 -11 0 -14 -147 -15 -862z m-334 -997 c-44 -44 -49 -46 -119 -51 -39 -4 -90 -2 -112 3 -22 5 -70 6 -107 2 -43 -4 -68 -3 -68 4 0 17 32 21 191 19 l155 -2 49 49 c32 33 50 45 53 36 2 -7 -16 -34 -42 -60z m171 47 c13 -12 23 -27 23 -35 0 -7 4 -13 9 -13 10 0 25 -50 17 -58 -3 -3 -12 11 -20 30 -8 19 -26 46 -40 59 -25 24 -33 39 -19 39 4 0 17 -10 30 -22z m-961 -93 c38 -19 91 -55 117 -80 53 -50 61 -52 103 -30 16 8 52 15 80 15 28 0 77 9 110 21 83 30 124 33 178 15 42 -14 50 -14 76 -1 16 8 36 15 45 15 25 0 93 -38 134 -75 21 -19 52 -38 69 -41 16 -3 46 -20 66 -36 30 -25 36 -36 34 -63 -1 -22 5 -42 17 -55 22 -24 34 -123 16 -134 -21 -13 -11 -49 24 -82 l35 -33 -24 -28 c-12 -15 -28 -38 -35 -50 -15 -29 -53 -30 -115 -2 -40 17 -52 19 -84 9 -80 -26 -87 -32 -88 -84 -2 -52 -12 -70 -40 -64 -17 3 -25 20 -39 82 -5 26 -9 28 -38 21 -18 -3 -55 -9 -82 -12 -44 -4 -54 -1 -79 22 -25 23 -34 25 -70 19 -37 -6 -39 -5 -27 10 18 21 -1 46 -38 47 l-26 0 23 11 c17 9 22 17 18 33 -4 14 1 25 14 33 11 7 20 17 20 22 0 13 -67 13 -75 0 -11 -18 -70 -11 -93 10 -24 23 -26 31 -22 103 3 65 -16 62 -90 -11 -50 -51 -59 -66 -70 -117 -15 -71 -8 -166 14 -200 30 -46 13 -62 -24 -22 -75 78 -86 191 -35 357 23 76 30 130 16 130 -6 0 -11 7 -11 15 0 8 -9 23 -20 32 -18 16 -29 63 -14 63 3 0 20 -11 38 -25 33 -25 66 -33 66 -16 0 13 -74 77 -109 95 -38 20 -56 20 -75 0 -17 -17 -22 -103 -7 -119 13 -15 41 -119 40 -152 l0 -28 -11 25 c-5 14 -16 37 -24 52 -8 14 -14 44 -14 65 0 21 -4 43 -10 49 -12 12 -26 185 -17 208 11 28 77 20 153 -19z m944 -105 c0 -19 -20 -27 -33 -13 -8 7 11 33 24 33 5 0 9 -9 9 -20z m-10 -575 c8 -9 10 -26 6 -42 -16 -65 -18 -83 -8 -83 6 0 31 -18 56 -39 34 -30 59 -42 103 -50 76 -15 156 -37 218 -62 28 -11 59 -24 70 -28 11 -4 56 -25 101 -46 l80 -37 89 46 c49 26 97 54 106 62 9 8 54 31 100 50 127 54 250 49 277 -11 14 -31 1 -41 -63 -50 -64 -10 -111 -34 -154 -79 -39 -41 -73 -46 -123 -20 -29 15 -37 15 -106 -2 -55 -14 -84 -27 -114 -55 -53 -48 -165 -76 -336 -85 l-122 -7 -63 43 c-100 69 -107 78 -107 127 0 37 -4 45 -25 53 -18 7 -24 17 -24 37 0 39 -12 106 -21 118 -11 15 -2 145 11 161 15 18 33 18 49 -1z m-900 -122 c19 -11 76 -37 127 -58 58 -24 116 -57 159 -91 94 -75 154 -133 154 -148 0 -22 -31 -90 -49 -107 -27 -26 -170 -109 -187 -109 -21 0 -94 52 -94 67 0 6 5 15 10 18 15 9 50 86 50 110 0 11 -15 41 -32 67 -18 25 -53 74 -77 109 -25 35 -47 66 -51 69 -22 18 -79 104 -73 113 4 6 10 5 17 -4 6 -8 27 -24 46 -36z m615 -13 c39 0 50 -5 115 -58 17 -14 31 -19 35 -12 3 5 22 10 41 10 27 0 34 -4 34 -19 0 -28 -26 -44 -62 -38 -18 2 -61 0 -95 -5 -75 -11 -92 -4 -127 56 -33 57 -34 81 -3 72 12 -3 40 -6 62 -6z m-134 -53 c9 -12 19 -34 22 -49 11 -44 67 -79 134 -85 32 -3 77 0 99 5 25 6 48 6 58 0 19 -11 21 -61 4 -76 -17 -14 -117 -10 -145 6 -14 8 -24 9 -28 2 -9 -14 -58 -12 -90 4 -39 20 -55 49 -65 114 -5 31 -12 67 -16 80 -8 28 6 28 27 -1z m1580 -137 c20 -11 27 -64 10 -74 -4 -3 -11 -18 -14 -33 -3 -16 -21 -46 -39 -67 l-34 -39 0 99 c1 54 5 105 9 112 10 15 41 16 68 2z m148 -79 c22 -26 38 -51 34 -55 -3 -3 -33 -6 -65 -6 -64 0 -75 10 -64 54 6 26 31 56 46 56 4 0 26 -22 49 -49z m-11 -138 c2 -19 -1 -33 -7 -33 -6 0 -11 -9 -11 -19 0 -25 -75 -85 -96 -77 -13 5 -12 11 10 37 14 17 26 43 26 58 0 68 72 99 78 34z m26 -189 c11 -30 -76 -124 -115 -124 -23 0 -25 13 -5 30 8 6 20 27 26 46 18 54 80 85 94 48z m-1879 -113 c6 -21 -11 -75 -23 -67 -10 6 -2 86 8 86 5 0 11 -8 15 -19z m-683 -242 c54 -21 118 -73 118 -96 0 -7 5 -13 11 -13 5 0 7 -5 4 -10 -4 -6 -12 -4 -21 5 -9 8 -33 15 -55 15 -32 0 -47 7 -70 30 -17 16 -49 34 -72 40 -73 19 -74 20 -53 36 28 20 76 17 138 -7z"/> <path d="M4102 2448 c-5 -7 -12 -24 -14 -38 -5 -37 -33 -36 -80 4 -50 43 -81 46 -129 10 -27 -20 -42 -24 -72 -21 -34 5 -37 3 -25 -11 7 -8 36 -30 63 -48 46 -29 60 -33 150 -38 55 -3 118 -7 140 -8 38 -3 40 -1 38 23 -1 25 -48 139 -57 139 -2 0 -8 -6 -14 -12z m-80 -96 c18 -18 -2 -32 -43 -32 -37 0 -79 26 -79 48 0 11 110 -4 122 -16z"/> <path d="M4345 2389 c-9 -14 24 -49 47 -49 15 0 18 5 12 23 -10 34 -45 50 -59 26z"/> <path d="M4212 2268 c-32 -32 11 -98 65 -98 13 0 36 -11 51 -25 15 -14 37 -25 51 -25 26 0 101 70 101 95 0 20 -39 19 -68 -1 -35 -24 -118 -2 -141 37 -17 31 -39 37 -59 17z"/> <path d="M4002 2158 c-20 -20 -14 -38 12 -38 22 0 36 16 36 41 0 13 -34 11 -48 -3z"/> <path d="M5250 3308 c0 -299 0 -761 -1 -1028 -1 -267 -1 -491 0 -497 2 -19 22 -16 88 11 79 32 138 49 171 49 59 0 125 -27 169 -72 33 -33 49 -42 66 -37 12 3 81 40 152 82 72 42 184 108 250 147 66 38 152 89 190 112 39 23 126 75 195 115 277 162 265 154 265 186 l0 29 -100 6 c-55 4 -168 7 -250 8 l-150 1 -150 -71 c-258 -122 -278 -131 -375 -175 -69 -32 -98 -40 -107 -32 -10 8 -13 101 -13 438 0 236 3 435 6 444 3 9 12 16 20 16 7 0 122 -73 256 -162 134 -89 272 -181 308 -204 l65 -43 245 -2 245 -1 3 35 c3 39 12 32 -303 252 -204 143 -506 362 -719 523 -155 117 -382 300 -444 357 -33 30 -65 55 -71 55 -8 0 -11 -150 -11 -542z"/> <path d="M3450 3742 c-312 -225 -378 -273 -393 -290 -8 -9 -43 -79 -78 -155 -34 -76 -70 -142 -80 -147 -12 -7 -38 1 -93 30 -43 22 -84 40 -92 40 -16 0 -502 -207 -522 -223 -9 -7 -12 -74 -10 -296 l3 -286 80 -43 c44 -24 141 -75 215 -114 74 -39 144 -77 155 -85 11 -7 27 -13 36 -13 32 0 37 47 26 258 -7 141 -7 206 1 214 13 13 36 1 167 -94 59 -43 115 -78 124 -77 9 0 56 49 104 110 106 131 126 139 129 52 0 -32 0 -68 -1 -79 -1 -12 5 -27 13 -33 23 -19 36 17 36 103 0 137 48 180 159 145 51 -16 125 -51 132 -62 4 -5 15 -7 25 -5 18 3 19 23 19 572 0 371 -3 570 -10 573 -5 1 -71 -41 -145 -95z"/> <path d="M4805 1206 c-66 -6 -125 -14 -131 -18 -24 -16 -14 -513 10 -505 6 2 66 82 134 178 260 369 253 353 162 355 -30 1 -109 -3 -175 -10z"/> <path d="M3405 880 c-7 -11 2 -30 13 -30 4 0 14 5 22 10 13 9 13 11 0 20 -19 12 -27 12 -35 0z"/> </g> </svg> 